HIERARCHY
ROOT Hips
{
  OFFSET 0.041574 96.3503 1.58353
  CHANNELS 6 Xposition Yposition Zposition Zrotation Xrotation Yrotation
  JOINT Spine
  {
    OFFSET 0 5.82294 0.122296
    CHANNELS 3 Zrotation Xrotation Yrotation
    JOINT Chest
    {
      OFFSET 0 10.3404 0
      CHANNELS 3 Zrotation Xrotation Yrotation
      JOINT UpperChest
      {
        OFFSET 0 10.3404 0
        CHANNELS 3 Zrotation Xrotation Yrotation
        JOINT Neck
        {
          OFFSET 0 25.1049 -1.53296
          CHANNELS 3 Zrotation Xrotation Yrotation
          JOINT Head
          {
            OFFSET 0 12.7476 0
            CHANNELS 3 Zrotation Xrotation Yrotation
            JOINT Right_Eye
            {
              OFFSET -3.33033 3.45963 8.67403
              CHANNELS 3 Zrotation Xrotation Yrotation
              End Site
              {
                OFFSET 0 0 0
              }
            }
            JOINT Left_Eye
            {
              OFFSET 3.33033 3.45981 8.67403
              CHANNELS 3 Zrotation Xrotation Yrotation
              End Site
              {
                OFFSET 0 0 0
              }
            }
            JOINT Jaw
            {
              OFFSET 0 -0.763539 1.28953
              CHANNELS 3 Zrotation Xrotation Yrotation
              End Site
              {
                OFFSET 0 0 0
              }
            }
          }
          JOINT Neck_Twist_A
          {
            OFFSET 0 6.3737 0
            CHANNELS 3 Zrotation Xrotation Yrotation
            End Site
            {
              OFFSET 0 0 0
            }
          }
        }
        JOINT Left_Shoulder
        {
          OFFSET 0.0957137 19.1492 -0.872779
          CHANNELS 3 Zrotation Xrotation Yrotation
          JOINT Left_UpperArm
          {
            OFFSET 16.7435 0 0
            CHANNELS 3 Zrotation Xrotation Yrotation
            JOINT Left_LowerArm
            {
              OFFSET 2.34464e-05 28.5081 0
              CHANNELS 3 Zrotation Xrotation Yrotation
              JOINT Left_Hand
              {
                OFFSET 0 24.0362 0
                CHANNELS 3 Zrotation Xrotation Yrotation
                JOINT Left_PinkyProximal
                {
                  OFFSET -0.44368 7.28817 -2.9359
                  CHANNELS 3 Zrotation Xrotation Yrotation
                  JOINT Left_PinkyIntermediate
                  {
                    OFFSET 0 3.22726 0
                    CHANNELS 3 Zrotation Xrotation Yrotation
                    JOINT Left_PinkyDistal
                    {
                      OFFSET 0 2.02245 0
                      CHANNELS 3 Zrotation Xrotation Yrotation
                      End Site
                      {
                        OFFSET 0 1.85191 0
                      }
                    }
                  }
                }
                JOINT Left_RingProximal
                {
                  OFFSET -0.952547 8.16155 -1.22424
                  CHANNELS 3 Zrotation Xrotation Yrotation
                  JOINT Left_RingIntermediate
                  {
                    OFFSET 0 4.36305 0
                    CHANNELS 3 Zrotation Xrotation Yrotation
                    JOINT Left_RingDistal
                    {
                      OFFSET 0 2.71155 0
                      CHANNELS 3 Zrotation Xrotation Yrotation
                      End Site
                      {
                        OFFSET 0 2.09573 0
                      }
                    }
                  }
                }
                JOINT Left_MiddleProximal
                {
                  OFFSET -1.28477 8.60977 0.343542
                  CHANNELS 3 Zrotation Xrotation Yrotation
                  JOINT Left_MiddleIntermediate
                  {
                    OFFSET 0 5.12793 0
                    CHANNELS 3 Zrotation Xrotation Yrotation
                    JOINT Left_MiddleDistal
                    {
                      OFFSET 0 2.8284 0
                      CHANNELS 3 Zrotation Xrotation Yrotation
                      End Site
                      {
                        OFFSET 0 2.33461 0
                      }
                    }
                  }
                }
                JOINT Left_IndexProximal
                {
                  OFFSET -0.781543 9.18442 2.65732
                  CHANNELS 3 Zrotation Xrotation Yrotation
                  JOINT Left_IndexIntermediate
                  {
                    OFFSET 0 4.20978 0
                    CHANNELS 3 Zrotation Xrotation Yrotation
                    JOINT Left_IndexDistal
                    {
                      OFFSET 0 2.51392 0
                      CHANNELS 3 Zrotation Xrotation Yrotation
                      End Site
                      {
                        OFFSET 0 2.46092 0
                      }
                    }
                  }
                }
                JOINT Left_ThumbProximal
                {
                  OFFSET 0.0805036 2.88168 2.35145
                  CHANNELS 3 Zrotation Xrotation Yrotation
                  JOINT Left_ThumbIntermediate
                  {
                    OFFSET 0 2.75783 0.381839
                    CHANNELS 3 Zrotation Xrotation Yrotation
                    JOINT Left_ThumbDistal
                    {
                      OFFSET 0 4.45973 -0.686991
                      CHANNELS 3 Zrotation Xrotation Yrotation
                      End Site
                      {
                        OFFSET 0 2.9458 0
                      }
                    }
                  }
                }
              }
            }
          }
        }
        JOINT Right_Shoulder
        {
          OFFSET -0.0957136 19.1494 -0.87278
          CHANNELS 3 Zrotation Xrotation Yrotation
          JOINT Right_UpperArm
          {
            OFFSET -16.7434 -0.000217748 1.51909e-05
            CHANNELS 3 Zrotation Xrotation Yrotation
            JOINT Right_LowerArm
            {
              OFFSET -0.000349226 -28.5085 -3.55672e-05
              CHANNELS 3 Zrotation Xrotation Yrotation
              JOINT Right_Hand
              {
                OFFSET -0.000150856 -24.0364 0.000179922
                CHANNELS 3 Zrotation Xrotation Yrotation
                JOINT Right_PinkyProximal
                {
                  OFFSET 0.443817 -7.28814 2.93586
                  CHANNELS 3 Zrotation Xrotation Yrotation
                  JOINT Right_PinkyIntermediate
                  {
                    OFFSET -4.7083e-05 -3.22689 8.72166e-05
                    CHANNELS 3 Zrotation Xrotation Yrotation
                    JOINT Right_PinkyDistal
                    {
                      OFFSET -2.63942e-05 -2.02249 5.15509e-05
                      CHANNELS 3 Zrotation Xrotation Yrotation
                      End Site
                      {
                        OFFSET -6.32002e-05 -1.85189 1.15411e-05
                      }
                    }
                  }
                }
                JOINT Right_RingProximal
                {
                  OFFSET 0.952744 -8.16143 1.22421
                  CHANNELS 3 Zrotation Xrotation Yrotation
                  JOINT Right_RingIntermediate
                  {
                    OFFSET 0 -4.36287 7.9882e-05
                    CHANNELS 3 Zrotation Xrotation Yrotation
                    JOINT Right_RingDistal
                    {
                      OFFSET 3.02166e-05 -2.71147 0
                      CHANNELS 3 Zrotation Xrotation Yrotation
                      End Site
                      {
                        OFFSET 0 -2.09579 5.56546e-05
                      }
                    }
                  }
                }
                JOINT Right_MiddleProximal
                {
                  OFFSET 1.28487 -8.60977 -0.343593
                  CHANNELS 3 Zrotation Xrotation Yrotation
                  JOINT Right_MiddleIntermediate
                  {
                    OFFSET 0 -5.1276 9.51028e-05
                    CHANNELS 3 Zrotation Xrotation Yrotation
                    JOINT Right_MiddleDistal
                    {
                      OFFSET -1.31315e-05 -2.82835 2.29473e-05
                      CHANNELS 3 Zrotation Xrotation Yrotation
                      End Site
                      {
                        OFFSET 0 -2.33453 5.35258e-05
                      }
                    }
                  }
                }
                JOINT Right_IndexProximal
                {
                  OFFSET 0.782229 -9.18393 -2.65746
                  CHANNELS 3 Zrotation Xrotation Yrotation
                  JOINT Right_IndexIntermediate
                  {
                    OFFSET -7.0805e-05 -4.21014 -0.000131586
                    CHANNELS 3 Zrotation Xrotation Yrotation
                    JOINT Right_IndexDistal
                    {
                      OFFSET 3.24678e-05 -2.51392 -5.75677e-05
                      CHANNELS 3 Zrotation Xrotation Yrotation
                      End Site
                      {
                        OFFSET -2.39845e-05 -2.46094 6.27113e-05
                      }
                    }
                  }
                }
                JOINT Right_ThumbProximal
                {
                  OFFSET -0.0803355 -2.88163 -2.35147
                  CHANNELS 3 Zrotation Xrotation Yrotation
                  JOINT Right_ThumbIntermediate
                  {
                    OFFSET 0 -2.75778 -0.38184
                    CHANNELS 3 Zrotation Xrotation Yrotation
                    JOINT Right_ThumbDistal
                    {
                      OFFSET -8.16205e-05 -4.45947 0.687077
                      CHANNELS 3 Zrotation Xrotation Yrotation
                      End Site
                      {
                        OFFSET -2.0229e-05 -2.94581 9.55168e-05
                      }
                    }
                  }
                }
              }
            }
          }
        }
      }
    }
  }
  JOINT Left_UpperLeg
  {
    OFFSET 8.61033 -5.3458 -1.14707
    CHANNELS 3 Zrotation Xrotation Yrotation
    JOINT Left_LowerLeg
    {
      OFFSET 0.000952408 41.3345 0.00779267
      CHANNELS 3 Zrotation Xrotation Yrotation
      JOINT Left_Foot
      {
        OFFSET 0 41.404 0
        CHANNELS 3 Zrotation Xrotation Yrotation
        JOINT Left_Toes
        {
          OFFSET 0 7.22481 -11.8066
          CHANNELS 3 Zrotation Xrotation Yrotation
          End Site
          {
            OFFSET 0.100262 6.42348 1.6844
          }
        }
      }
    }
  }
  JOINT Right_UpperLeg
  {
    OFFSET -8.61033 -5.34581 -1.14707
    CHANNELS 3 Zrotation Xrotation Yrotation
    JOINT Right_LowerLeg
    {
      OFFSET -0.00243634 -41.3343 0.0557459
      CHANNELS 3 Zrotation Xrotation Yrotation
      JOINT Right_Foot
      {
        OFFSET 7.58749e-05 -41.404 -1.69673e-05
        CHANNELS 3 Zrotation Xrotation Yrotation
        JOINT Right_Toes
        {
          OFFSET 1.63655e-05 -7.2248 11.807
          CHANNELS 3 Zrotation Xrotation Yrotation
          End Site
          {
            OFFSET -0.100316 -6.42306 -1.68439
          }
        }
      }
    }
  }
}
MOTION
Frames:	4
Frame Time:	0.00833333
0.0263834 96.3505 1.58226 -0.462481 1.44534 4.26843e-05 -0.0449273 0.762937 -0.0711509 -0.0889158 1.52593 -0.141722 -0.0889156 1.52593 -0.141722 1.88384 -5.72188 -0.841413 -0.208864 -4.72121 -0.339554 180 -1.28938e-29 90 -4.22417e-16 -2.58656e-32 -90 2.12196e-14 26.0711 -90 2.842e-16 0 -0 -1.37882 0.341443 3.7174 -165.495 5.8394 34.6329 -8.28618e-05 22.2716 8.35356e-06 4.77075 -5.34061 -11.1891 -38.9233 -21.3844 58.2721 9.15993e-07 34.8175 -1.41154e-06 3.41245e-06 16.3675 -1.13824e-05 -32.1003 -17.1438 68.5402 5.55698e-06 46.0074 -3.84034e-06 -4.92555e-06 10.3881 -6.02068e-06 -25.8221 -7.55302 80.976 4.75337e-07 39.8736 -5.73622e-06 6.94778e-06 3.83668 5.51006e-06 -27.5237 -5.49731 89.3008 -2.52373e-06 30.2319 6.7389e-06 2.28712e-06 9.54348 -2.25744e-06 -32.3343 34.8831 -165.993 -0.10422 16.6348 0.0127131 -7.94456e-06 19.7471 1.28586e-06 -172.809 -3.91197 -173.951 -164.251 10.3392 37.2487 -3.16752e-05 22.628 1.46447e-05 6.88093 -4.14203 -4.42385 -38.9233 -21.3844 58.2721 5.71859e-06 34.8175 -7.18646e-06 1.04681e-06 16.3675 -8.19189e-06 -32.1003 -17.1438 68.5402 5.08829e-06 46.0074 -9.10799e-06 -8.24349e-07 10.3881 -3.17631e-06 -25.8221 -7.55302 80.976 3.30534e-06 39.8736 -6.53849e-06 3.31644e-06 3.83668 7.5917e-06 -27.5237 -5.49731 89.3008 -2.17724e-06 30.2319 8.01208e-06 6.08158e-06 9.54348 -3.26297e-06 -32.3343 34.8831 -165.993 -0.104326 16.6364 0.0126889 -5.11702e-06 19.7471 1.09507e-06 -179.466 -3.3905 173.348 0.0175653 2.12656 0.000105174 1.55664 -7.30081 4.07765 179.996 -89.7426 179.996 0.435415 4.34131 2.2301 -0.00498718 0.0231848 -0.00292057 -0.910572 -6.89135 -8.78371 0.000429863 -88.5961 0.000428329 
0.0356956 96.3498 1.58589 -0.454809 1.44936 0.00921425 -0.046769 0.759607 -0.0694808 -0.09263 1.51927 -0.13836 -0.0926294 1.51927 -0.138359 1.85694 -5.70901 -0.824506 -0.219703 -4.70058 -0.322323 180 -1.28938e-29 90 -4.96962e-17 -3.04301e-33 -90 2.12196e-14 26.0711 -90 2.90412e-16 -9.93923e-17 -0 -1.41518 0.356736 3.73235 -165.474 5.90152 34.7185 -5.89951e-05 22.3209 -4.28348e-06 4.92095 -5.20791 -11.2044 -38.9233 -21.3844 58.2721 1.57405e-06 34.8175 -1.82437e-06 3.33683e-06 16.3675 -9.97168e-06 -32.1003 -17.1438 68.5402 4.08556e-06 46.0074 -1.10597e-06 -2.75096e-06 10.3881 -7.80786e-06 -25.8221 -7.55302 80.976 9.17964e-07 39.8736 -4.07867e-06 5.73084e-06 3.83668 3.42033e-06 -27.5237 -5.49731 89.3008 -2.93808e-06 30.2319 5.84966e-06 3.18405e-06 9.54348 -2.46288e-06 -32.3343 34.8831 -165.993 -0.104224 16.6348 0.0127114 -7.66323e-06 19.7471 1.14539e-06 -172.807 -3.91067 -173.947 -164.254 10.3588 37.263 1.04263e-05 22.6136 1.00012e-05 6.88872 -4.15779 -4.41913 -38.9233 -21.3844 58.2721 4.23706e-06 34.8175 -2.6014e-06 7.9861e-07 16.3675 -7.89278e-06 -32.1003 -17.1438 68.5402 4.05555e-06 46.0074 -6.03594e-06 -2.8676e-07 10.3881 -4.27537e-06 -25.8221 -7.55302 80.976 2.71468e-06 39.8736 -3.45495e-06 2.54691e-06 3.83668 7.3954e-06 -27.5237 -5.49731 89.3008 -1.5931e-06 30.2319 5.41728e-06 4.59077e-06 9.54348 4.52111e-07 -32.3343 34.8831 -165.993 -0.10433 16.6364 0.0126866 -3.82647e-06 19.7471 8.5175e-07 -179.472 -3.35761 173.38 0.0124907 2.16558 0.000105752 1.55154 -7.30316 4.07431 179.997 -89.7425 179.997 0.429897 4.37726 2.21028 -0.00477507 -0.0255885 -0.00278704 -0.900255 -6.87074 -8.78765 0.000164079 -88.5939 0.000163676 
0.041574 96.3503 1.58353 -0.45692 1.44258 0.0375594 -0.0431756 0.761538 -0.0740194 -0.0853756 1.52312 -0.147484 -0.0853753 1.52312 -0.147484 1.82912 -5.69616 -0.80752 -0.229779 -4.67953 -0.305095 180 -1.28938e-29 90 1.2424e-16 7.60753e-33 -90 2.12196e-14 26.0711 -90 3.10601e-16 -9.93923e-17 5.96354e-16 -1.45306 0.372501 3.74788 -165.453 5.96627 34.8084 -3.40101e-05 22.3644 -1.82451e-05 5.07668 -5.06551 -11.2248 -38.9233 -21.3844 58.2721 2.26654e-06 34.8175 -2.24503e-06 3.29654e-06 16.3675 -8.51129e-06 -32.1003 -17.1438 68.5402 2.57613e-06 46.0074 1.88141e-06 -3.64069e-07 10.3881 -9.88297e-06 -25.8221 -7.55302 80.976 1.35976e-06 39.8736 -2.21333e-06 4.50362e-06 3.83668 1.10427e-06 -27.5237 -5.49731 89.3008 -3.4539e-06 30.2319 4.85903e-06 4.25212e-06 9.54348 -2.67141e-06 -32.3343 34.8831 -165.993 -0.104228 16.6348 0.0127095 -7.3718e-06 19.7471 9.55843e-07 -172.806 -3.90933 -173.943 -164.259 10.379 37.281 5.68108e-05 22.5973 5.21182e-06 6.89608 -4.17468 -4.41432 -38.9233 -21.3844 58.2721 2.74606e-06 34.8175 2.29416e-06 4.58162e-07 16.3675 -7.61184e-06 -32.1003 -17.1438 68.5402 2.98652e-06 46.0074 -2.89173e-06 2.33912e-07 10.3881 -5.35347e-06 -25.8221 -7.55302 80.976 2.073e-06 39.8736 -1.43461e-07 1.7513e-06 3.83669 7.23691e-06 -27.5237 -5.49731 89.3008 -1.08428e-06 30.2319 2.71447e-06 3.09057e-06 9.54348 4.50495e-06 -32.3343 34.8831 -165.993 -0.104335 16.6365 0.0126842 -2.35989e-06 19.7471 5.74646e-07 -179.477 -3.32017 173.413 0.00692444 2.21025 0.00010649 1.54578 -7.30615 4.06959 179.997 -89.7422 179.997 0.424181 4.41683 2.18848 -0.00453255 -0.0809289 -0.00263479 -0.888928 -6.84664 -8.79021 -0.000120048 -88.5921 -0.00011923 
0.0521387 96.3491 1.59568 -0.462872 1.42657 0.0887079 -0.0387183 0.76214 -0.0828012 -0.076348 1.52434 -0.165109 -0.0763481 1.52434 -0.165109 1.80312 -5.68327 -0.790696 -0.241418 -4.65934 -0.287862 180 -1.28938e-29 90 -3.47873e-16 -2.13011e-32 -90 2.12196e-14 26.0711 -90 2.70223e-16 0 -0 -1.48793 0.387321 3.76224 -165.433 6.02531 34.8901 -1.11911e-05 22.4196 -2.95844e-05 5.22156 -4.94255 -11.2352 -38.9233 -21.3844 58.2721 2.89018e-06 34.8175 -2.65001e-06 3.18559e-06 16.3675 -7.1503e-06 -32.1003 -17.1438 68.5402 1.14274e-06 46.0074 4.36277e-06 1.59821e-06 10.3881 -1.13822e-05 -25.8221 -7.55302 80.976 1.80322e-06 39.8736 -7.63563e-07 3.29698e-06 3.83668 -7.59114e-07 -27.5237 -5.49731 89.3008 -3.76677e-06 30.2319 4.07119e-06 4.9779e-06 9.54348 -2.87376e-06 -32.3343 34.8831 -165.993 -0.104232 16.6348 0.012708 -7.10057e-06 19.7471 8.64454e-07 -172.803 -3.90803 -173.939 -164.261 10.3979 37.2916 9.46217e-05 22.5849 7.17181e-07 6.9043 -4.18932 -4.40967 -38.9233 -21.3844 58.2721 1.274e-06 34.8175 6.5687e-06 3.02208e-07 16.3675 -7.29456e-06 -32.1003 -17.1438 68.5402 1.99008e-06 46.0074 1.08165e-07 7.88419e-07 10.3881 -6.4735e-06 -25.8221 -7.55302 80.976 1.53335e-06 39.8736 2.71211e-06 1.00786e-06 3.83669 7.00281e-06 -27.5237 -5.49731 89.3008 -4.24816e-07 30.2319 2.27694e-07 1.60915e-06 9.54348 7.88227e-06 -32.3343 34.8831 -165.993 -0.104339 16.6365 0.012682 -1.24539e-06 19.7471 3.65111e-07 -179.483 -3.29185 173.443 0.00234142 2.24362 0.000106907 1.54134 -7.30784 4.06763 179.997 -89.7421 179.997 0.418936 4.44918 2.17064 -0.00435017 -0.123135 -0.00251999 -0.879614 -6.82953 -8.79552 -0.000365058 -88.5896 -0.000363202 
